/* XPM */
static char *_8066da80d904ba28fc5a730dffaa210nxVZwsqRS7SOxvin[] = {
/* columns rows colors chars-per-pixel */
"64 64 158 2 ",
"   c None",
".  c #041F37",
"X  c #081F38",
"o  c #062137",
"O  c #072339",
"+  c #05223B",
"@  c #07243D",
"#  c #07253D",
"$  c #07253E",
"%  c #07263F",
"&  c #07273F",
"*  c #082338",
"=  c #052241",
"-  c #072541",
";  c #072740",
":  c #072641",
">  c #072642",
",  c #072742",
"<  c #072744",
"1  c #062841",
"2  c #062941",
"3  c #072842",
"4  c #062844",
"5  c #062845",
"6  c #082947",
"7  c #082A46",
"8  c #0A2B47",
"9  c #062748",
"0  c #072D49",
"q  c #072C4A",
"w  c #072E4A",
"e  c #072F4B",
"r  c #072D4C",
"t  c #072D4D",
"y  c #072E4C",
"u  c #072E4E",
"i  c #082D48",
"p  c #0A2F54",
"a  c #083253",
"s  c #093458",
"d  c #0B3659",
"f  c #0A375C",
"g  c #0A3A61",
"h  c #0A3A63",
"j  c #0A3A64",
"k  c #0A3D64",
"l  c #0A3D66",
"z  c #0A3D67",
"x  c #0B3E66",
"c  c #0A3E67",
"v  c #0B3E68",
"b  c #0B3E69",
"n  c #0B3F69",
"m  c #0B3F6A",
"M  c #0B406A",
"N  c #0B406B",
"B  c #0C416C",
"V  c #0D416C",
"C  c #0D426C",
"Z  c #0E426C",
"A  c #0E426D",
"S  c #0E436D",
"D  c #0F436D",
"F  c #11446E",
"G  c #11456F",
"H  c #12456F",
"J  c #154771",
"K  c #194B73",
"L  c #1A4C74",
"P  c #1C4D75",
"I  c #1D4D75",
"U  c #205077",
"Y  c #235279",
"T  c #245379",
"R  c #28567B",
"E  c #2A587D",
"W  c #2E5A7F",
"Q  c #325E81",
"!  c #335F82",
"~  c #366184",
"^  c #3A6386",
"/  c #3A6486",
"(  c #3C6587",
")  c #40688A",
"_  c #40698A",
"`  c #476E8E",
"'  c #507493",
"]  c #517693",
"[  c #577A97",
"{  c #5C7E9A",
"}  c #5E809B",
"|  c #66859F",
" . c #6987A0",
".. c #6887A1",
"X. c #6988A1",
"o. c #6A89A2",
"O. c #6B8AA2",
"+. c #6E8CA4",
"@. c #7390A7",
"#. c #7591A8",
"$. c #7792A9",
"%. c #7894AA",
"&. c #7995AA",
"*. c #7F99AE",
"=. c #819AAF",
"-. c #88A0B3",
";. c #8BA2B5",
":. c #8DA4B6",
">. c #8FA5B7",
",. c #90A6B8",
"<. c #91A6B8",
"1. c #94A9BA",
"2. c #A0B2C0",
"3. c #A1B3C1",
"4. c #A2B3C2",
"5. c #A2B4C2",
"6. c #A8B8C5",
"7. c #A9B9C5",
"8. c #A8B9C6",
"9. c #AABAC7",
"0. c #ACBBC7",
"q. c #ACBBC8",
"w. c #ADBCC8",
"e. c #B0BECA",
"r. c #B2C0CB",
"t. c #B6C3CD",
"y. c #B7C3CE",
"u. c #B8C4CE",
"i. c #BAC6D0",
"p. c #BBC7D0",
"a. c #BCC7D0",
"s. c #BEC9D2",
"d. c #C1CBD3",
"f. c #C1CBD4",
"g. c #C2CCD4",
"h. c #C4CED5",
"j. c #C5CFD6",
"k. c #C6CFD7",
"l. c #C7D0D7",
"z. c #CBD3D9",
"x. c #CDD4DA",
"c. c #D9DDE1",
"v. c #D9DEE2",
"b. c #DBDFE3",
"n. c #DFE2E5",
"m. c #E0E3E6",
"M. c #E1E4E6",
"N. c #E2E5E7",
"B. c #E4E5E7",
"V. c #E4E6E8",
"C. c #E5E6E8",
"Z. c #E6E8E9",
"A. c #E9EAEA",
"S. c #EAEAEB",
"D. c #EAEBEB",
"F. c #ECECEC",
"G. c #ECEDED",
"H. c gray93",
/* pixels */
"                                                                                                                                ",
"                                                                                                                                ",
"                                                        > q y y y q 1                                                           ",
"                                              > b N N N N N N N N N N N N N b 1                                                 ",
"                                          N N N N N N N N N N N N N N N N N N N N N X                                           ",
"                                    o N N N N N N N N N N N N N N N N N N N N N N N N N <                                       ",
"                                  N N N N N N N N N N N N N N N N N N N N N N N N N N N N N                                     ",
"                              N N N N N N N N N N N N N N N N N N N N N N N N N N N N N N N N N                                 ",
"                            N N N N N N N N N N N N N N N N N N N N N N N N N N N N N N N N N N N                               ",
"                        s N N N N N N N N N N N N N N N N E Z.H.D.~ N N N N N N N N N N N N N N N N h                           ",
"                      z N N N N N N N N N N N N N N N N 3.H.H.H.H.H.7.N N N N N N N N N N N N N N N N b                         ",
"                    z N N N N N N N N N N N N N N N N %.H.H.H.H.H.H.H.,.N N N N N N N N N N N N N N N N b                       ",
"                  s N N N N N N N N N N N N N N N N N 0.H.H.H.H.H.H.H.y.N N N N N N N N N N N N N N N N N h                     ",
"                  N N N N N N N N N N N N N N N N N N g.H.H.H.H.H.H.H.c.N N N N N N N N N N N N N N N N N N                     ",
"                N N N N N N N N N N N N N N N N N N N 7.H.H.H.H.H.H.H.q.N N N N N N N N N N N N N N N N N N N                   ",
"              N N N N N N N N N N N N N N N N N N N N Q H.H.H.H.H.H.H.] N N N N N N N N N N N N N N N N N N N N                 ",
"              N N N N N N N N N N N N N N N N N N N A B.H.H.H.H.H.H.;.N N N N N N N N N N N N N N N N N N N N N                 ",
"            N N N N N N N N N N N N N N A  . .F N ^ H.H.5.A :.a.1.F N N N N N N N N N N N N N N N N N N N N N N N               ",
"            N N N N N N N N N N N N N C.H.H.H.H.5.H.H.{ N N N N N N N N N N N N N N N N N N N N N N N N N N N N N 5             ",
"          N N N N N N N N N N N N N c.H.H.H.H.H.H.H.( N N N N N N N N N N N N N N N N N N N N N N N N N N N N N N N             ",
"          N N N N N N N N N N N N N H.H.H.H.H.H.H.H.A N N N N N N N N N N N N N N N N N N N N N N N N N N N N N N N *           ",
"        N N N N N N N N N N N N N W H.H.H.H.H.H.H.H.Q N N N N N N N N N N N N N N N N N N N N N N N N N N N N N N N N           ",
"        N N N N N N N N N N N N N J H.H.H.H.H.H.H.H.P N N N N N N N N N N N N N N N N N N N N N N N N N N N N N N N N           ",
"      > N N N N N N N N N N N N N N H.H.H.H.H.H.H.H.N N N N N N N N N N N N N N N N N N N N N N N N N N N N N N N N N 5         ",
"      z N N N N N N N N N N N N N N ) H.H.H.H.H.H.U N N N N N N N N N N N N N N N N N N N N N N N N N N N N N N N N N b         ",
"      N N N N N N N N N N N N N N N N / D.H.H.m.L N N N N N N N N N N N N N N N N N N N N N N N N N N N N N N N N N N N         ",
"      N N N N N N N N N N N N N N N N N N A A N N N N N N | k.x.l.+.N N N N N N N N N N N N N N N N N N N N N N N N N N         ",
"      N N N N N N N N N N N N N N N N N N N N N N N N N 3.H.H.H.H.H.y.N N N N N N N N N N N N N N N N N N N N N N N N N         ",
"    # N N N N N N N N N N N N N N N N N N N N N N N N o.H.H.H.H.H.H.H.#.N N N N N N N N N N N N N N N N N N N N N N N N 8       ",
"    q N N N N N N N N N N N N N N N N N N N N N N N N p.H.H.H.H.H.H.H.k.N N N N N N N N N N N N N N N N N N N N N N N N y       ",
"    y N N N N N N N N N N N N N N N N N N N N N N N N z.H.H.H.H.H.H.H.n.N N N N N N N N N N N N N N N N N N N N N N N N y       ",
"    y N N N N N N N N N N N N N N N N N N N N N N N N p.H.H.H.H.H.H.H.k.N N N N N N N N N N N N N N N N N N N N N N N N q       ",
"    y N N N N N N N N N N N N N N N N N N N N N N N N o.H.H.H.H.H.H.H.*.N N N N N N N N N N N N N N N N N N N N N N N N y       ",
"    q N N N N N N N N N N N N N N N N N N N N N N N N N e.H.H.H.H.H.u.N N N N N N N N N N N N N N N N N N N N N N N N N y       ",
"    # N N N N N N N N N N N N N N N N N N N N N N N N N N #.g.C.k.*.N N N N N N N N N N N N N N N N N N N N N N N N N N 8       ",
"      N N N N N N N N N N N N N N N N N N N N N N N N N N N N N N N N N N N N T ` K N N N N N N N N N N N N N N N N N N         ",
"      N N N N N N N N N N N N N N N N N N N N N N N N N N N N N N N N N N F D.H.H.H.r.A N N N N N N N N N N N N N N N N         ",
"      N N N N N N N N N N N N N N N N N N N N N N N N N N N N N N N N N A H.H.H.H.H.H.H.N N N N N N N N N N N N N N N N         ",
"      b N N N N N N N N N N N N N N N N N N N N N N N N N N N N N N N N o.H.H.H.H.H.H.H.~ N N N N N N N N N N N N N N b         ",
"      > N N N N N N N N N N N N N N N N N N N N N N N N N N N N N N N A H.H.H.H.H.H.H.H.y.N N N N N N N N N N N N N N 1         ",
"        N N N N N N N N N N N N N N N N N N N N N N N N N N N N N N N A H.H.H.H.H.H.H.H.p.N N N N N N N N N N N N N N           ",
"        N N N N N N N N N N N N N N N N N N N N N N N N N N N N N N N N =.H.H.H.H.H.H.H.) N N N N N N N N N N N N N N           ",
"        . N N N N N N N N N N N N N N N N N N N N N N N N N N N N N N N Y H.H.H.H.H.H.M.N N N N N N N N N N N N N N +           ",
"          N N N N N N N N N N N N N N N N N N N N N N N N N N N N N N / H.H.D.H.H.H.M.N N N N N N N N N N N N N N N             ",
"          # N N N N N N N N N N N N N N N N N N N N N N N %.H.H.H.-.[ H.H.:.N A P N N N N N N N N N N N N N N N N p             ",
"            N N N N N N N N N N N N N N N N N N N N N N f.H.H.H.H.H.H.H.] N N N N N N N N N N N N N N N N N N N N               ",
"              N N N N N N N N N N N N N N N N N N N N ,.H.H.H.H.H.H.H.3.N N N N N N N N N N N N N N N N N N N N #               ",
"              N N N N N N N N N N N N N N N N N N N N w.H.H.H.H.H.H.H.s.N N N N N N N N N N N N N N N N N N N N                 ",
"                N N N N N N N N N N N N N N N N N N N d.H.H.H.H.H.H.H.c.N N N N N N N N N N N N N N N N N N N                   ",
"                  N N N N N N N N N N N N N N N N N N 7.H.H.H.H.H.H.H.7.N N N N N N N N N N N N N N N N N N >                   ",
"                  j N N N N N N N N N N N N N N N N N F H.H.H.H.H.H.H.R N N N N N N N N N N N N N N N N N z                     ",
"                    b N N N N N N N N N N N N N N N N N } H.H.H.H.H.@.N N N N N N N N N N N N N N N N N b                       ",
"                      b N N N N N N N N N N N N N N N N N F U #.T F N N N N N N N N N N N N N N N N N b                         ",
"                        z N N N N N N N N N N N N N N N N N N N N N N N N N N N N N N N N N N N N N z                           ",
"                            N N N N N N N N N N N N N N N N N N N N N N N N N N N N N N N N N N N 8                             ",
"                              N N N N N N N N N N N N N N N N N N N N N N N N N N N N N N N N N                                 ",
"                                # N N N N N N N N N N N N N N N N N N N N N N N N N N N N N 9                                   ",
"                                    a N N N N N N N N N N N N N N N N N N N N N N N N N f                                       ",
"                                        + N N N N N N N N N N N N N N N N N N N N N =                                           ",
"                                              i N N N N N N N N N N N N N N N q                                                 ",
"                                                      # q y y y y y y #                                                         ",
"                                                                                                                                ",
"                                                                                                                                ",
"                                                                                                                                "
};
