/* XPM */
static char *de0a2d61fdae4b7295640b67a28fc24fgeAacKns0nGYGn6r[] = {
/* columns rows colors chars-per-pixel */
"16 16 69 1 ",
"  c None",
". c #061F35",
"X c #061F38",
"o c #061F39",
"O c #062034",
"+ c #062137",
"@ c #062237",
"# c #062138",
"$ c #062238",
"% c #062338",
"& c #062239",
"* c #062339",
"= c #05233A",
"- c #06223B",
"; c #05243B",
": c #082E4E",
"> c #082F4F",
", c #082F50",
"< c #093455",
"1 c #093457",
"2 c #093458",
"3 c #0A3659",
"4 c #09365B",
"5 c #0B375C",
"6 c #0A3E67",
"7 c #0B3E67",
"8 c #0B3E68",
"9 c #0B406A",
"0 c #0B406B",
"q c #0C416C",
"w c #0D426C",
"e c #0E426D",
"r c #10446E",
"t c #144770",
"y c #154871",
"u c #164972",
"i c #184A72",
"p c #1A4B74",
"a c #1C4D75",
"s c #205077",
"d c #245279",
"f c #335F82",
"g c #366184",
"h c #3F6889",
"j c #4A708F",
"k c #4C7290",
"l c #4E7492",
"z c #567A96",
"x c #708EA5",
"c c #7792A9",
"v c #7C96AC",
"b c #7C97AC",
"n c #7D98AC",
"m c #7E98AD",
"M c #849CB0",
"N c #869EB2",
"B c #8EA5B6",
"V c #91A6B8",
"C c #A5B6C4",
"Z c #A6B7C4",
"A c #B6C3CE",
"S c #B8C4CF",
"D c #BAC6D0",
"F c #CED5DB",
"G c #D8DDE1",
"H c #D9DEE2",
"J c #EBEBEC",
"K c #ECECEC",
"L c gray93",
/* pixels */
"     o1664o     ",
"   #00000000+   ",
"  :000eGGr000:  ",
" +0000yKJi0000# ",
" 000jABgd000000 ",
"+000CKm00000000#",
"1000fvpkl0000004",
"600000yKKs000008",
"600000eSDe000008",
"100000000zFh0004",
".00000000CKv000#",
" 000000xmVcr000 ",
" #0000tKKa0000# ",
"  :0000MM0000,  ",
"   #00000000;   ",
"     #4885#     "
};
