/* XPM */
static char *d4dfc19134e843f29529d883ef013ef5E3IOjUwJZbVi7qET[] = {
/* columns rows colors chars-per-pixel */
"32 32 94 2 ",
"   c None",
".  c #062237",
"X  c #062138",
"o  c #06243A",
"O  c #083050",
"+  c #093252",
"@  c #093253",
"#  c #093255",
"$  c #093355",
"%  c #093455",
"&  c #093457",
"*  c #093557",
"=  c #093358",
"-  c #083559",
";  c #09375B",
":  c #0A365A",
">  c #0A385E",
",  c #0A3A62",
"<  c #0A3B62",
"1  c #0A3B63",
"2  c #0A3B64",
"3  c #0A3B65",
"4  c #0A3C64",
"5  c #0A3D64",
"6  c #0A3D66",
"7  c #0B3D67",
"8  c #0A3E67",
"9  c #0B3E67",
"0  c #0B3E68",
"q  c #0B3F68",
"w  c #0B3F69",
"e  c #0B3F6A",
"r  c #0B406B",
"t  c #0C416B",
"y  c #0C416C",
"u  c #0D416C",
"i  c #0E426D",
"p  c #0F436D",
"a  c #11456F",
"s  c #12466F",
"d  c #134670",
"f  c #144770",
"g  c #164871",
"h  c #164971",
"j  c #174972",
"k  c #184A72",
"l  c #194B73",
"z  c #1B4C74",
"x  c #1F4F76",
"c  c #215178",
"v  c #225178",
"b  c #235279",
"n  c #315D81",
"m  c #325E81",
"M  c #386285",
"N  c #396385",
"B  c #3C6587",
"V  c #3C6687",
"C  c #3E6788",
"Z  c #3F6889",
"A  c #406989",
"S  c #466D8D",
"D  c #476E8E",
"F  c #4E7391",
"G  c #557895",
"H  c #5D7F9A",
"J  c #6786A0",
"K  c #6A88A2",
"L  c #6E8CA4",
"P  c #7490A7",
"I  c #879FB2",
"U  c #8CA2B5",
"Y  c #94A9BA",
"T  c #99ADBD",
"R  c #9EB0BF",
"E  c #ACBBC7",
"W  c #ACBBC8",
"Q  c #B2C0CB",
"!  c #B3C0CB",
"~  c #CAD2D9",
"^  c #CFD6DC",
"/  c #D2D8DD",
"(  c #D8DDE1",
")  c #D9DEE2",
"_  c #DADEE2",
"`  c #DBDFE3",
"'  c #DCE0E3",
"]  c #E1E4E6",
"[  c #E4E6E8",
"{  c #E5E7E8",
"}  c #EAEBEB",
"|  c #EBECEC",
" . c #ECECEC",
".. c gray93",
/* pixels */
"                          & 1 7 7 1 &                           ",
"                    7 r r r r r r r r r r w                     ",
"                w r r r r r r r r r r r r r r w                 ",
"            O r r r r r r r r y y r r r r r r r r O             ",
"          7 r r r r r r r r T ....R r r r r r r r r 7           ",
"        7 r r r r r r r r j ........x r r r r r r r r 7         ",
"      O r r r r r r r r r b ........V r r r r r r r r r O       ",
"      r r r r r r r r r r z ......{ y r r r r r r r r r r       ",
"    w r r r r r r l U P n | H J K y r r r r r r r r r r r w     ",
"    r r r r r r j ........n r r r r r r r r r r r r r r r r     ",
"  7 r r r r r r L ........f r r r r r r r r r r r r r r r r w   ",
"  r r r r r r r F ........t r r r r r r r r r r r r r r r r r   ",
"  r r r r r r r r E ....S r r r r r r r r r r r r r r r r r r   ",
"O r r r r r r r r r t r r r C ` ' S r r r r r r r r r r r r r - ",
"1 r r r r r r r r r r r r s ........d r r r r r r r r r r r r 7 ",
"7 r r r r r r r r r r r r n ........G r r r r r r r r r r r r 3 ",
"7 r r r r r r r r r r r r s ........s r r r r r r r r r r r r 3 ",
"1 r r r r r r r r r r r r r M ^ / C r r r r r r r r r r r r r 7 ",
"$ r r r r r r r r r r r r r r r r r r A ~ Y y r r r r r r r r - ",
"  r r r r r r r r r r r r r r r r r b ......` r r r r r r r r   ",
"  r r r r r r r r r r r r r r r r r I ........y r r r r r r r   ",
"  w r r r r r r r r r r r r r r r r M ......} t r r r r r r w   ",
"    r r r r r r r r r r r r r j l r Q ` ..` b r r r r r r r     ",
"    w r r r r r r r r r r r Q ....{ W r r r r r r r r r r w     ",
"      r r r r r r r r r r l ........b r r r r r r r r r r       ",
"      $ r r r r r r r r r b ........M r r r r r r r r r =       ",
"        w r r r r r r r r r ` ....] t r r r r r r r r w         ",
"          w r r r r r r r r r V Z t r r r r r r r r w           ",
"            & r r r r r r r r r r r r r r r r r r -             ",
"                w r r r r r r r r r r r r r r w                 ",
"                    w r r r r r r r r r r r .                   ",
"                        X > 7 7 7 7 > o                         "
};
